<?xml version="1.0" encoding="UTF-8"?>
<!DOCTYPE svg PUBLIC "-//W3C//DTD SVG 1.1//EN" "http://www.w3.org/Graphics/SVG/1.1/DTD/svg11.dtd">
<!-- Creator: CorelDRAW 2017 -->
<svg xmlns="http://www.w3.org/2000/svg" xml:space="preserve" width="120px" height="120px" version="1.1" shape-rendering="geometricPrecision" text-rendering="geometricPrecision" image-rendering="optimizeQuality" fill-rule="evenodd" clip-rule="evenodd"
viewBox="0 0 120000 120000"
 xmlns:xlink="http://www.w3.org/1999/xlink"
 xmlns:ev="http://www.w3.org/2001/xml-events">
 <g id="Слой_x0020_1">
  <metadata id="CorelCorpID_0Corel-Layer"/>
  <rect fill="white" x="2990" y="2130" width="114720" height="114720"/>
  <g id="_2333525115504">
   <g>
    <rect fill="black" x="11090" y="10600" width="3890" height="3890"/>
   </g>
   <g>
    <rect fill="black" x="11090" y="14490" width="3890" height="3890"/>
   </g>
   <g>
    <rect fill="black" x="11090" y="18380" width="3890" height="3890"/>
   </g>
   <g>
    <rect fill="black" x="11090" y="22270" width="3890" height="3890"/>
   </g>
   <g>
    <rect fill="black" x="11090" y="26160" width="3890" height="3890"/>
   </g>
   <g>
    <rect fill="black" x="11090" y="30050" width="3890" height="3890"/>
   </g>
   <g>
    <rect fill="black" x="11090" y="33950" width="3890" height="3890"/>
   </g>
   <g>
    <rect fill="black" x="11090" y="41730" width="3890" height="3890"/>
   </g>
   <g>
    <rect fill="black" x="11090" y="61190" width="3890" height="3890"/>
   </g>
   <g>
    <rect fill="black" x="11090" y="68970" width="3890" height="3890"/>
   </g>
   <g>
    <rect fill="black" x="11090" y="80650" width="3890" height="3890"/>
   </g>
   <g>
    <rect fill="black" x="11090" y="84540" width="3890" height="3890"/>
   </g>
   <g>
    <rect fill="black" x="11090" y="88430" width="3890" height="3890"/>
   </g>
   <g>
    <rect fill="black" x="11090" y="92320" width="3890" height="3890"/>
   </g>
   <g>
    <rect fill="black" x="11090" y="96210" width="3890" height="3890"/>
   </g>
   <g>
    <rect fill="black" x="11090" y="100100" width="3890" height="3890"/>
   </g>
   <g>
    <rect fill="black" x="11090" y="104000" width="3890" height="3890"/>
   </g>
   <g>
    <rect fill="black" x="14980" y="10600" width="3890" height="3890"/>
   </g>
   <g>
    <rect fill="black" x="14980" y="33950" width="3890" height="3890"/>
   </g>
   <g>
    <rect fill="black" x="14980" y="41730" width="3890" height="3890"/>
   </g>
   <g>
    <rect fill="black" x="14980" y="53400" width="3890" height="3890"/>
   </g>
   <g>
    <rect fill="black" x="14980" y="65080" width="3890" height="3890"/>
   </g>
   <g>
    <rect fill="black" x="14980" y="72860" width="3890" height="3890"/>
   </g>
   <g>
    <rect fill="black" x="14980" y="80650" width="3890" height="3890"/>
   </g>
   <g>
    <rect fill="black" x="14980" y="104000" width="3890" height="3890"/>
   </g>
   <g>
    <rect fill="black" x="18880" y="10600" width="3890" height="3890"/>
   </g>
   <g>
    <rect fill="black" x="18880" y="18380" width="3890" height="3890"/>
   </g>
   <g>
    <rect fill="black" x="18880" y="22270" width="3890" height="3890"/>
   </g>
   <g>
    <rect fill="black" x="18880" y="26160" width="3890" height="3890"/>
   </g>
   <g>
    <rect fill="black" x="18880" y="33950" width="3890" height="3890"/>
   </g>
   <g>
    <rect fill="black" x="18880" y="41730" width="3890" height="3890"/>
   </g>
   <g>
    <rect fill="black" x="18880" y="49510" width="3890" height="3890"/>
   </g>
   <g>
    <rect fill="black" x="18880" y="61190" width="3890" height="3890"/>
   </g>
   <g>
    <rect fill="black" x="18880" y="65080" width="3890" height="3890"/>
   </g>
   <g>
    <rect fill="black" x="18880" y="68970" width="3890" height="3890"/>
   </g>
   <g>
    <rect fill="black" x="18880" y="80650" width="3890" height="3890"/>
   </g>
   <g>
    <rect fill="black" x="18880" y="88430" width="3890" height="3890"/>
   </g>
   <g>
    <rect fill="black" x="18880" y="92320" width="3890" height="3890"/>
   </g>
   <g>
    <rect fill="black" x="18880" y="96210" width="3890" height="3890"/>
   </g>
   <g>
    <rect fill="black" x="18880" y="104000" width="3890" height="3890"/>
   </g>
   <g>
    <rect fill="black" x="22770" y="10600" width="3890" height="3890"/>
   </g>
   <g>
    <rect fill="black" x="22770" y="18380" width="3890" height="3890"/>
   </g>
   <g>
    <rect fill="black" x="22770" y="22270" width="3890" height="3890"/>
   </g>
   <g>
    <rect fill="black" x="22770" y="26160" width="3890" height="3890"/>
   </g>
   <g>
    <rect fill="black" x="22770" y="33950" width="3890" height="3890"/>
   </g>
   <g>
    <rect fill="black" x="22770" y="45620" width="3890" height="3890"/>
   </g>
   <g>
    <rect fill="black" x="22770" y="53400" width="3890" height="3890"/>
   </g>
   <g>
    <rect fill="black" x="22770" y="57300" width="3890" height="3890"/>
   </g>
   <g>
    <rect fill="black" x="22770" y="65080" width="3890" height="3890"/>
   </g>
   <g>
    <rect fill="black" x="22770" y="68970" width="3890" height="3890"/>
   </g>
   <g>
    <rect fill="black" x="22770" y="80650" width="3890" height="3890"/>
   </g>
   <g>
    <rect fill="black" x="22770" y="88430" width="3890" height="3890"/>
   </g>
   <g>
    <rect fill="black" x="22770" y="92320" width="3890" height="3890"/>
   </g>
   <g>
    <rect fill="black" x="22770" y="96210" width="3890" height="3890"/>
   </g>
   <g>
    <rect fill="black" x="22770" y="104000" width="3890" height="3890"/>
   </g>
   <g>
    <rect fill="black" x="26660" y="10600" width="3890" height="3890"/>
   </g>
   <g>
    <rect fill="black" x="26660" y="18380" width="3890" height="3890"/>
   </g>
   <g>
    <rect fill="black" x="26660" y="22270" width="3890" height="3890"/>
   </g>
   <g>
    <rect fill="black" x="26660" y="26160" width="3890" height="3890"/>
   </g>
   <g>
    <rect fill="black" x="26660" y="33950" width="3890" height="3890"/>
   </g>
   <g>
    <rect fill="black" x="26660" y="41730" width="3890" height="3890"/>
   </g>
   <g>
    <rect fill="black" x="26660" y="49510" width="3890" height="3890"/>
   </g>
   <g>
    <rect fill="black" x="26660" y="61190" width="3890" height="3890"/>
   </g>
   <g>
    <rect fill="black" x="26660" y="65080" width="3890" height="3890"/>
   </g>
   <g>
    <rect fill="black" x="26660" y="68970" width="3890" height="3890"/>
   </g>
   <g>
    <rect fill="black" x="26660" y="80650" width="3890" height="3890"/>
   </g>
   <g>
    <rect fill="black" x="26660" y="88430" width="3890" height="3890"/>
   </g>
   <g>
    <rect fill="black" x="26660" y="92320" width="3890" height="3890"/>
   </g>
   <g>
    <rect fill="black" x="26660" y="96210" width="3890" height="3890"/>
   </g>
   <g>
    <rect fill="black" x="26660" y="104000" width="3890" height="3890"/>
   </g>
   <g>
    <rect fill="black" x="30550" y="10600" width="3890" height="3890"/>
   </g>
   <g>
    <rect fill="black" x="30550" y="33950" width="3890" height="3890"/>
   </g>
   <g>
    <rect fill="black" x="30550" y="41730" width="3890" height="3890"/>
   </g>
   <g>
    <rect fill="black" x="30550" y="49510" width="3890" height="3890"/>
   </g>
   <g>
    <rect fill="black" x="30550" y="53400" width="3890" height="3890"/>
   </g>
   <g>
    <rect fill="black" x="30550" y="68970" width="3890" height="3890"/>
   </g>
   <g>
    <rect fill="black" x="30550" y="80650" width="3890" height="3890"/>
   </g>
   <g>
    <rect fill="black" x="30550" y="104000" width="3890" height="3890"/>
   </g>
   <g>
    <rect fill="black" x="34440" y="10600" width="3890" height="3890"/>
   </g>
   <g>
    <rect fill="black" x="34440" y="14490" width="3890" height="3890"/>
   </g>
   <g>
    <rect fill="black" x="34440" y="18380" width="3890" height="3890"/>
   </g>
   <g>
    <rect fill="black" x="34440" y="22270" width="3890" height="3890"/>
   </g>
   <g>
    <rect fill="black" x="34440" y="26160" width="3890" height="3890"/>
   </g>
   <g>
    <rect fill="black" x="34440" y="30050" width="3890" height="3890"/>
   </g>
   <g>
    <rect fill="black" x="34440" y="33950" width="3890" height="3890"/>
   </g>
   <g>
    <rect fill="black" x="34440" y="41730" width="3890" height="3890"/>
   </g>
   <g>
    <rect fill="black" x="34440" y="49510" width="3890" height="3890"/>
   </g>
   <g>
    <rect fill="black" x="34440" y="57300" width="3890" height="3890"/>
   </g>
   <g>
    <rect fill="black" x="34440" y="65080" width="3890" height="3890"/>
   </g>
   <g>
    <rect fill="black" x="34440" y="72860" width="3890" height="3890"/>
   </g>
   <g>
    <rect fill="black" x="34440" y="80650" width="3890" height="3890"/>
   </g>
   <g>
    <rect fill="black" x="34440" y="84540" width="3890" height="3890"/>
   </g>
   <g>
    <rect fill="black" x="34440" y="88430" width="3890" height="3890"/>
   </g>
   <g>
    <rect fill="black" x="34440" y="92320" width="3890" height="3890"/>
   </g>
   <g>
    <rect fill="black" x="34440" y="96210" width="3890" height="3890"/>
   </g>
   <g>
    <rect fill="black" x="34440" y="100100" width="3890" height="3890"/>
   </g>
   <g>
    <rect fill="black" x="34440" y="104000" width="3890" height="3890"/>
   </g>
   <g>
    <rect fill="black" x="38330" y="41730" width="3890" height="3890"/>
   </g>
   <g>
    <rect fill="black" x="38330" y="45620" width="3890" height="3890"/>
   </g>
   <g>
    <rect fill="black" x="38330" y="57300" width="3890" height="3890"/>
   </g>
   <g>
    <rect fill="black" x="38330" y="61190" width="3890" height="3890"/>
   </g>
   <g>
    <rect fill="black" x="38330" y="65080" width="3890" height="3890"/>
   </g>
   <g>
    <rect fill="black" x="38330" y="68970" width="3890" height="3890"/>
   </g>
   <g>
    <rect fill="black" x="38330" y="72860" width="3890" height="3890"/>
   </g>
   <g>
    <rect fill="black" x="42230" y="18380" width="3890" height="3890"/>
   </g>
   <g>
    <rect fill="black" x="42230" y="33950" width="3890" height="3890"/>
   </g>
   <g>
    <rect fill="black" x="42230" y="37840" width="3890" height="3890"/>
   </g>
   <g>
    <rect fill="black" x="42230" y="41730" width="3890" height="3890"/>
   </g>
   <g>
    <rect fill="black" x="42230" y="45620" width="3890" height="3890"/>
   </g>
   <g>
    <rect fill="black" x="42230" y="53400" width="3890" height="3890"/>
   </g>
   <g>
    <rect fill="black" x="42230" y="61190" width="3890" height="3890"/>
   </g>
   <g>
    <rect fill="black" x="42230" y="68970" width="3890" height="3890"/>
   </g>
   <g>
    <rect fill="black" x="42230" y="72860" width="3890" height="3890"/>
   </g>
   <g>
    <rect fill="black" x="42230" y="76750" width="3890" height="3890"/>
   </g>
   <g>
    <rect fill="black" x="42230" y="80650" width="3890" height="3890"/>
   </g>
   <g>
    <rect fill="black" x="42230" y="84540" width="3890" height="3890"/>
   </g>
   <g>
    <rect fill="black" x="42230" y="88430" width="3890" height="3890"/>
   </g>
   <g>
    <rect fill="black" x="42230" y="96210" width="3890" height="3890"/>
   </g>
   <g>
    <rect fill="black" x="42230" y="100100" width="3890" height="3890"/>
   </g>
   <g>
    <rect fill="black" x="42230" y="104000" width="3890" height="3890"/>
   </g>
   <g>
    <rect fill="black" x="46120" y="14490" width="3890" height="3890"/>
   </g>
   <g>
    <rect fill="black" x="46120" y="22270" width="3890" height="3890"/>
   </g>
   <g>
    <rect fill="black" x="46120" y="26160" width="3890" height="3890"/>
   </g>
   <g>
    <rect fill="black" x="46120" y="45620" width="3890" height="3890"/>
   </g>
   <g>
    <rect fill="black" x="46120" y="53400" width="3890" height="3890"/>
   </g>
   <g>
    <rect fill="black" x="46120" y="68970" width="3890" height="3890"/>
   </g>
   <g>
    <rect fill="black" x="46120" y="88430" width="3890" height="3890"/>
   </g>
   <g>
    <rect fill="black" x="46120" y="92320" width="3890" height="3890"/>
   </g>
   <g>
    <rect fill="black" x="46120" y="100100" width="3890" height="3890"/>
   </g>
   <g>
    <rect fill="black" x="46120" y="104000" width="3890" height="3890"/>
   </g>
   <g>
    <rect fill="black" x="50010" y="10600" width="3890" height="3890"/>
   </g>
   <g>
    <rect fill="black" x="50010" y="30050" width="3890" height="3890"/>
   </g>
   <g>
    <rect fill="black" x="50010" y="33950" width="3890" height="3890"/>
   </g>
   <g>
    <rect fill="black" x="50010" y="49510" width="3890" height="3890"/>
   </g>
   <g>
    <rect fill="black" x="50010" y="53400" width="3890" height="3890"/>
   </g>
   <g>
    <rect fill="black" x="50010" y="57300" width="3890" height="3890"/>
   </g>
   <g>
    <rect fill="black" x="50010" y="61190" width="3890" height="3890"/>
   </g>
   <g>
    <rect fill="black" x="50010" y="68970" width="3890" height="3890"/>
   </g>
   <g>
    <rect fill="black" x="50010" y="80650" width="3890" height="3890"/>
   </g>
   <g>
    <rect fill="black" x="50010" y="84540" width="3890" height="3890"/>
   </g>
   <g>
    <rect fill="black" x="50010" y="92320" width="3890" height="3890"/>
   </g>
   <g>
    <rect fill="black" x="50010" y="100100" width="3890" height="3890"/>
   </g>
   <g>
    <rect fill="black" x="53900" y="18380" width="3890" height="3890"/>
   </g>
   <g>
    <rect fill="black" x="53900" y="30050" width="3890" height="3890"/>
   </g>
   <g>
    <rect fill="black" x="53900" y="37840" width="3890" height="3890"/>
   </g>
   <g>
    <rect fill="black" x="53900" y="45620" width="3890" height="3890"/>
   </g>
   <g>
    <rect fill="black" x="53900" y="49510" width="3890" height="3890"/>
   </g>
   <g>
    <rect fill="black" x="53900" y="57300" width="3890" height="3890"/>
   </g>
   <g>
    <rect fill="black" x="53900" y="61190" width="3890" height="3890"/>
   </g>
   <g>
    <rect fill="black" x="53900" y="68970" width="3890" height="3890"/>
   </g>
   <g>
    <rect fill="black" x="53900" y="76750" width="3890" height="3890"/>
   </g>
   <g>
    <rect fill="black" x="53900" y="80650" width="3890" height="3890"/>
   </g>
   <g>
    <rect fill="black" x="53900" y="88430" width="3890" height="3890"/>
   </g>
   <g>
    <rect fill="black" x="53900" y="92320" width="3890" height="3890"/>
   </g>
   <g>
    <rect fill="black" x="53900" y="100100" width="3890" height="3890"/>
   </g>
   <g>
    <rect fill="black" x="57790" y="22270" width="3890" height="3890"/>
   </g>
   <g>
    <rect fill="black" x="57790" y="26160" width="3890" height="3890"/>
   </g>
   <g>
    <rect fill="black" x="57790" y="30050" width="3890" height="3890"/>
   </g>
   <g>
    <rect fill="black" x="57790" y="33950" width="3890" height="3890"/>
   </g>
   <g>
    <rect fill="black" x="57790" y="41730" width="3890" height="3890"/>
   </g>
   <g>
    <rect fill="black" x="57790" y="45620" width="3890" height="3890"/>
   </g>
   <g>
    <rect fill="black" x="57790" y="49510" width="3890" height="3890"/>
   </g>
   <g>
    <rect fill="black" x="57790" y="53400" width="3890" height="3890"/>
   </g>
   <g>
    <rect fill="black" x="57790" y="72860" width="3890" height="3890"/>
   </g>
   <g>
    <rect fill="black" x="57790" y="76750" width="3890" height="3890"/>
   </g>
   <g>
    <rect fill="black" x="57790" y="80650" width="3890" height="3890"/>
   </g>
   <g>
    <rect fill="black" x="57790" y="84540" width="3890" height="3890"/>
   </g>
   <g>
    <rect fill="black" x="57790" y="104000" width="3890" height="3890"/>
   </g>
   <g>
    <rect fill="black" x="61690" y="10600" width="3890" height="3890"/>
   </g>
   <g>
    <rect fill="black" x="61690" y="30050" width="3890" height="3890"/>
   </g>
   <g>
    <rect fill="black" x="61690" y="37840" width="3890" height="3890"/>
   </g>
   <g>
    <rect fill="black" x="61690" y="41730" width="3890" height="3890"/>
   </g>
   <g>
    <rect fill="black" x="61690" y="49510" width="3890" height="3890"/>
   </g>
   <g>
    <rect fill="black" x="61690" y="53400" width="3890" height="3890"/>
   </g>
   <g>
    <rect fill="black" x="61690" y="57300" width="3890" height="3890"/>
   </g>
   <g>
    <rect fill="black" x="61690" y="61190" width="3890" height="3890"/>
   </g>
   <g>
    <rect fill="black" x="61690" y="65080" width="3890" height="3890"/>
   </g>
   <g>
    <rect fill="black" x="61690" y="68970" width="3890" height="3890"/>
   </g>
   <g>
    <rect fill="black" x="61690" y="72860" width="3890" height="3890"/>
   </g>
   <g>
    <rect fill="black" x="61690" y="76750" width="3890" height="3890"/>
   </g>
   <g>
    <rect fill="black" x="61690" y="84540" width="3890" height="3890"/>
   </g>
   <g>
    <rect fill="black" x="61690" y="96210" width="3890" height="3890"/>
   </g>
   <g>
    <rect fill="black" x="65580" y="10600" width="3890" height="3890"/>
   </g>
   <g>
    <rect fill="black" x="65580" y="14490" width="3890" height="3890"/>
   </g>
   <g>
    <rect fill="black" x="65580" y="22270" width="3890" height="3890"/>
   </g>
   <g>
    <rect fill="black" x="65580" y="30050" width="3890" height="3890"/>
   </g>
   <g>
    <rect fill="black" x="65580" y="33950" width="3890" height="3890"/>
   </g>
   <g>
    <rect fill="black" x="65580" y="41730" width="3890" height="3890"/>
   </g>
   <g>
    <rect fill="black" x="65580" y="61190" width="3890" height="3890"/>
   </g>
   <g>
    <rect fill="black" x="65580" y="65080" width="3890" height="3890"/>
   </g>
   <g>
    <rect fill="black" x="65580" y="76750" width="3890" height="3890"/>
   </g>
   <g>
    <rect fill="black" x="65580" y="84540" width="3890" height="3890"/>
   </g>
   <g>
    <rect fill="black" x="65580" y="88430" width="3890" height="3890"/>
   </g>
   <g>
    <rect fill="black" x="69470" y="10600" width="3890" height="3890"/>
   </g>
   <g>
    <rect fill="black" x="69470" y="14490" width="3890" height="3890"/>
   </g>
   <g>
    <rect fill="black" x="69470" y="18380" width="3890" height="3890"/>
   </g>
   <g>
    <rect fill="black" x="69470" y="22270" width="3890" height="3890"/>
   </g>
   <g>
    <rect fill="black" x="69470" y="26160" width="3890" height="3890"/>
   </g>
   <g>
    <rect fill="black" x="69470" y="30050" width="3890" height="3890"/>
   </g>
   <g>
    <rect fill="black" x="69470" y="37840" width="3890" height="3890"/>
   </g>
   <g>
    <rect fill="black" x="69470" y="72860" width="3890" height="3890"/>
   </g>
   <g>
    <rect fill="black" x="69470" y="76750" width="3890" height="3890"/>
   </g>
   <g>
    <rect fill="black" x="69470" y="80650" width="3890" height="3890"/>
   </g>
   <g>
    <rect fill="black" x="69470" y="104000" width="3890" height="3890"/>
   </g>
   <g>
    <rect fill="black" x="73360" y="18380" width="3890" height="3890"/>
   </g>
   <g>
    <rect fill="black" x="73360" y="30050" width="3890" height="3890"/>
   </g>
   <g>
    <rect fill="black" x="73360" y="33950" width="3890" height="3890"/>
   </g>
   <g>
    <rect fill="black" x="73360" y="41730" width="3890" height="3890"/>
   </g>
   <g>
    <rect fill="black" x="73360" y="45620" width="3890" height="3890"/>
   </g>
   <g>
    <rect fill="black" x="73360" y="49510" width="3890" height="3890"/>
   </g>
   <g>
    <rect fill="black" x="73360" y="53400" width="3890" height="3890"/>
   </g>
   <g>
    <rect fill="black" x="73360" y="61190" width="3890" height="3890"/>
   </g>
   <g>
    <rect fill="black" x="73360" y="68970" width="3890" height="3890"/>
   </g>
   <g>
    <rect fill="black" x="73360" y="72860" width="3890" height="3890"/>
   </g>
   <g>
    <rect fill="black" x="73360" y="76750" width="3890" height="3890"/>
   </g>
   <g>
    <rect fill="black" x="73360" y="80650" width="3890" height="3890"/>
   </g>
   <g>
    <rect fill="black" x="73360" y="84540" width="3890" height="3890"/>
   </g>
   <g>
    <rect fill="black" x="73360" y="88430" width="3890" height="3890"/>
   </g>
   <g>
    <rect fill="black" x="73360" y="92320" width="3890" height="3890"/>
   </g>
   <g>
    <rect fill="black" x="73360" y="96210" width="3890" height="3890"/>
   </g>
   <g>
    <rect fill="black" x="73360" y="100100" width="3890" height="3890"/>
   </g>
   <g>
    <rect fill="black" x="73360" y="104000" width="3890" height="3890"/>
   </g>
   <g>
    <rect fill="black" x="77250" y="41730" width="3890" height="3890"/>
   </g>
   <g>
    <rect fill="black" x="77250" y="49510" width="3890" height="3890"/>
   </g>
   <g>
    <rect fill="black" x="77250" y="57300" width="3890" height="3890"/>
   </g>
   <g>
    <rect fill="black" x="77250" y="65080" width="3890" height="3890"/>
   </g>
   <g>
    <rect fill="black" x="77250" y="72860" width="3890" height="3890"/>
   </g>
   <g>
    <rect fill="black" x="77250" y="88430" width="3890" height="3890"/>
   </g>
   <g>
    <rect fill="black" x="77250" y="92320" width="3890" height="3890"/>
   </g>
   <g>
    <rect fill="black" x="81140" y="10600" width="3890" height="3890"/>
   </g>
   <g>
    <rect fill="black" x="81140" y="14490" width="3890" height="3890"/>
   </g>
   <g>
    <rect fill="black" x="81140" y="18380" width="3890" height="3890"/>
   </g>
   <g>
    <rect fill="black" x="81140" y="22270" width="3890" height="3890"/>
   </g>
   <g>
    <rect fill="black" x="81140" y="26160" width="3890" height="3890"/>
   </g>
   <g>
    <rect fill="black" x="81140" y="30050" width="3890" height="3890"/>
   </g>
   <g>
    <rect fill="black" x="81140" y="33950" width="3890" height="3890"/>
   </g>
   <g>
    <rect fill="black" x="81140" y="41730" width="3890" height="3890"/>
   </g>
   <g>
    <rect fill="black" x="81140" y="45620" width="3890" height="3890"/>
   </g>
   <g>
    <rect fill="black" x="81140" y="49510" width="3890" height="3890"/>
   </g>
   <g>
    <rect fill="black" x="81140" y="53400" width="3890" height="3890"/>
   </g>
   <g>
    <rect fill="black" x="81140" y="57300" width="3890" height="3890"/>
   </g>
   <g>
    <rect fill="black" x="81140" y="61190" width="3890" height="3890"/>
   </g>
   <g>
    <rect fill="black" x="81140" y="65080" width="3890" height="3890"/>
   </g>
   <g>
    <rect fill="black" x="81140" y="68970" width="3890" height="3890"/>
   </g>
   <g>
    <rect fill="black" x="81140" y="72860" width="3890" height="3890"/>
   </g>
   <g>
    <rect fill="black" x="81140" y="80650" width="3890" height="3890"/>
   </g>
   <g>
    <rect fill="black" x="81140" y="88430" width="3890" height="3890"/>
   </g>
   <g>
    <rect fill="black" x="81140" y="100100" width="3890" height="3890"/>
   </g>
   <g>
    <rect fill="black" x="85040" y="10600" width="3890" height="3890"/>
   </g>
   <g>
    <rect fill="black" x="85040" y="33950" width="3890" height="3890"/>
   </g>
   <g>
    <rect fill="black" x="85040" y="49510" width="3890" height="3890"/>
   </g>
   <g>
    <rect fill="black" x="85040" y="57300" width="3890" height="3890"/>
   </g>
   <g>
    <rect fill="black" x="85040" y="65080" width="3890" height="3890"/>
   </g>
   <g>
    <rect fill="black" x="85040" y="72860" width="3890" height="3890"/>
   </g>
   <g>
    <rect fill="black" x="85040" y="88430" width="3890" height="3890"/>
   </g>
   <g>
    <rect fill="black" x="85040" y="92320" width="3890" height="3890"/>
   </g>
   <g>
    <rect fill="black" x="85040" y="104000" width="3890" height="3890"/>
   </g>
   <g>
    <rect fill="black" x="88930" y="10600" width="3890" height="3890"/>
   </g>
   <g>
    <rect fill="black" x="88930" y="18380" width="3890" height="3890"/>
   </g>
   <g>
    <rect fill="black" x="88930" y="22270" width="3890" height="3890"/>
   </g>
   <g>
    <rect fill="black" x="88930" y="26160" width="3890" height="3890"/>
   </g>
   <g>
    <rect fill="black" x="88930" y="33950" width="3890" height="3890"/>
   </g>
   <g>
    <rect fill="black" x="88930" y="68970" width="3890" height="3890"/>
   </g>
   <g>
    <rect fill="black" x="88930" y="72860" width="3890" height="3890"/>
   </g>
   <g>
    <rect fill="black" x="88930" y="76750" width="3890" height="3890"/>
   </g>
   <g>
    <rect fill="black" x="88930" y="80650" width="3890" height="3890"/>
   </g>
   <g>
    <rect fill="black" x="88930" y="84540" width="3890" height="3890"/>
   </g>
   <g>
    <rect fill="black" x="88930" y="88430" width="3890" height="3890"/>
   </g>
   <g>
    <rect fill="black" x="88930" y="92320" width="3890" height="3890"/>
   </g>
   <g>
    <rect fill="black" x="88930" y="96210" width="3890" height="3890"/>
   </g>
   <g>
    <rect fill="black" x="88930" y="100100" width="3890" height="3890"/>
   </g>
   <g>
    <rect fill="black" x="92820" y="10600" width="3890" height="3890"/>
   </g>
   <g>
    <rect fill="black" x="92820" y="18380" width="3890" height="3890"/>
   </g>
   <g>
    <rect fill="black" x="92820" y="22270" width="3890" height="3890"/>
   </g>
   <g>
    <rect fill="black" x="92820" y="26160" width="3890" height="3890"/>
   </g>
   <g>
    <rect fill="black" x="92820" y="33950" width="3890" height="3890"/>
   </g>
   <g>
    <rect fill="black" x="92820" y="57300" width="3890" height="3890"/>
   </g>
   <g>
    <rect fill="black" x="92820" y="61190" width="3890" height="3890"/>
   </g>
   <g>
    <rect fill="black" x="92820" y="72860" width="3890" height="3890"/>
   </g>
   <g>
    <rect fill="black" x="92820" y="76750" width="3890" height="3890"/>
   </g>
   <g>
    <rect fill="black" x="92820" y="80650" width="3890" height="3890"/>
   </g>
   <g>
    <rect fill="black" x="92820" y="84540" width="3890" height="3890"/>
   </g>
   <g>
    <rect fill="black" x="92820" y="88430" width="3890" height="3890"/>
   </g>
   <g>
    <rect fill="black" x="92820" y="92320" width="3890" height="3890"/>
   </g>
   <g>
    <rect fill="black" x="92820" y="100100" width="3890" height="3890"/>
   </g>
   <g>
    <rect fill="black" x="96710" y="10600" width="3890" height="3890"/>
   </g>
   <g>
    <rect fill="black" x="96710" y="18380" width="3890" height="3890"/>
   </g>
   <g>
    <rect fill="black" x="96710" y="22270" width="3890" height="3890"/>
   </g>
   <g>
    <rect fill="black" x="96710" y="26160" width="3890" height="3890"/>
   </g>
   <g>
    <rect fill="black" x="96710" y="33950" width="3890" height="3890"/>
   </g>
   <g>
    <rect fill="black" x="96710" y="41730" width="3890" height="3890"/>
   </g>
   <g>
    <rect fill="black" x="96710" y="49510" width="3890" height="3890"/>
   </g>
   <g>
    <rect fill="black" x="96710" y="65080" width="3890" height="3890"/>
   </g>
   <g>
    <rect fill="black" x="96710" y="92320" width="3890" height="3890"/>
   </g>
   <g>
    <rect fill="black" x="100600" y="10600" width="3890" height="3890"/>
   </g>
   <g>
    <rect fill="black" x="100600" y="33950" width="3890" height="3890"/>
   </g>
   <g>
    <rect fill="black" x="100600" y="49510" width="3890" height="3890"/>
   </g>
   <g>
    <rect fill="black" x="100600" y="53400" width="3890" height="3890"/>
   </g>
   <g>
    <rect fill="black" x="100600" y="57300" width="3890" height="3890"/>
   </g>
   <g>
    <rect fill="black" x="100600" y="65080" width="3890" height="3890"/>
   </g>
   <g>
    <rect fill="black" x="100600" y="68970" width="3890" height="3890"/>
   </g>
   <g>
    <rect fill="black" x="100600" y="76750" width="3890" height="3890"/>
   </g>
   <g>
    <rect fill="black" x="100600" y="80650" width="3890" height="3890"/>
   </g>
   <g>
    <rect fill="black" x="100600" y="84540" width="3890" height="3890"/>
   </g>
   <g>
    <rect fill="black" x="100600" y="88430" width="3890" height="3890"/>
   </g>
   <g>
    <rect fill="black" x="100600" y="100100" width="3890" height="3890"/>
   </g>
   <g>
    <rect fill="black" x="100600" y="104000" width="3890" height="3890"/>
   </g>
   <g>
    <rect fill="black" x="104490" y="10600" width="3890" height="3890"/>
   </g>
   <g>
    <rect fill="black" x="104490" y="14490" width="3890" height="3890"/>
   </g>
   <g>
    <rect fill="black" x="104490" y="18380" width="3890" height="3890"/>
   </g>
   <g>
    <rect fill="black" x="104490" y="22270" width="3890" height="3890"/>
   </g>
   <g>
    <rect fill="black" x="104490" y="26160" width="3890" height="3890"/>
   </g>
   <g>
    <rect fill="black" x="104490" y="30050" width="3890" height="3890"/>
   </g>
   <g>
    <rect fill="black" x="104490" y="33950" width="3890" height="3890"/>
   </g>
   <g>
    <rect fill="black" x="104490" y="45620" width="3890" height="3890"/>
   </g>
   <g>
    <rect fill="black" x="104490" y="49510" width="3890" height="3890"/>
   </g>
   <g>
    <rect fill="black" x="104490" y="57300" width="3890" height="3890"/>
   </g>
   <g>
    <rect fill="black" x="104490" y="61190" width="3890" height="3890"/>
   </g>
   <g>
    <rect fill="black" x="104490" y="65080" width="3890" height="3890"/>
   </g>
   <g>
    <rect fill="black" x="104490" y="76750" width="3890" height="3890"/>
   </g>
   <g>
    <rect fill="black" x="104490" y="80650" width="3890" height="3890"/>
   </g>
   <g>
    <rect fill="black" x="104490" y="84540" width="3890" height="3890"/>
   </g>
   <g>
    <rect fill="black" x="104490" y="88430" width="3890" height="3890"/>
   </g>
   <g>
    <rect fill="black" x="104490" y="96210" width="3890" height="3890"/>
   </g>
   <g>
    <rect fill="black" x="104490" y="104000" width="3890" height="3890"/>
   </g>
  </g>
  <g id="_2333525115216">
  </g>
 </g>
</svg>
