<?xml version="1.0" encoding="UTF-8"?>
<!DOCTYPE svg PUBLIC "-//W3C//DTD SVG 1.1//EN" "http://www.w3.org/Graphics/SVG/1.1/DTD/svg11.dtd">
<!-- Creator: CorelDRAW 2017 -->
<svg xmlns="http://www.w3.org/2000/svg" xml:space="preserve" width="120px" height="120px" version="1.1" shape-rendering="geometricPrecision" text-rendering="geometricPrecision" image-rendering="optimizeQuality" fill-rule="evenodd" clip-rule="evenodd"
viewBox="0 0 120000 120000"
 xmlns:xlink="http://www.w3.org/1999/xlink"
 xmlns:ev="http://www.w3.org/2001/xml-events">
 <g id="Слой_x0020_1">
  <metadata id="CorelCorpID_0Corel-Layer"/>
  <rect fill="white" x="1980" y="1980" width="116660" height="116660"/>
  <g id="_1804179631808">
   <g>
    <rect fill="black" x="18070" y="18070" width="4020" height="4020"/>
   </g>
   <g>
    <rect fill="black" x="18070" y="22090" width="4020" height="4020"/>
   </g>
   <g>
    <rect fill="black" x="18070" y="26110" width="4020" height="4020"/>
   </g>
   <g>
    <rect fill="black" x="18070" y="30130" width="4020" height="4020"/>
   </g>
   <g>
    <rect fill="black" x="18070" y="34160" width="4020" height="4020"/>
   </g>
   <g>
    <rect fill="black" x="18070" y="38180" width="4020" height="4020"/>
   </g>
   <g>
    <rect fill="black" x="18070" y="42200" width="4020" height="4020"/>
   </g>
   <g>
    <rect fill="black" x="18070" y="50250" width="4020" height="4020"/>
   </g>
   <g>
    <rect fill="black" x="18070" y="58290" width="4020" height="4020"/>
   </g>
   <g>
    <rect fill="black" x="18070" y="74380" width="4020" height="4020"/>
   </g>
   <g>
    <rect fill="black" x="18070" y="78410" width="4020" height="4020"/>
   </g>
   <g>
    <rect fill="black" x="18070" y="82430" width="4020" height="4020"/>
   </g>
   <g>
    <rect fill="black" x="18070" y="86450" width="4020" height="4020"/>
   </g>
   <g>
    <rect fill="black" x="18070" y="90470" width="4020" height="4020"/>
   </g>
   <g>
    <rect fill="black" x="18070" y="94500" width="4020" height="4020"/>
   </g>
   <g>
    <rect fill="black" x="18070" y="98520" width="4020" height="4020"/>
   </g>
   <g>
    <rect fill="black" x="22090" y="18070" width="4020" height="4020"/>
   </g>
   <g>
    <rect fill="black" x="22090" y="42200" width="4020" height="4020"/>
   </g>
   <g>
    <rect fill="black" x="22090" y="50250" width="4020" height="4020"/>
   </g>
   <g>
    <rect fill="black" x="22090" y="54270" width="4020" height="4020"/>
   </g>
   <g>
    <rect fill="black" x="22090" y="66340" width="4020" height="4020"/>
   </g>
   <g>
    <rect fill="black" x="22090" y="74380" width="4020" height="4020"/>
   </g>
   <g>
    <rect fill="black" x="22090" y="98520" width="4020" height="4020"/>
   </g>
   <g>
    <rect fill="black" x="26110" y="18070" width="4020" height="4020"/>
   </g>
   <g>
    <rect fill="black" x="26110" y="26110" width="4020" height="4020"/>
   </g>
   <g>
    <rect fill="black" x="26110" y="30130" width="4020" height="4020"/>
   </g>
   <g>
    <rect fill="black" x="26110" y="34160" width="4020" height="4020"/>
   </g>
   <g>
    <rect fill="black" x="26110" y="42200" width="4020" height="4020"/>
   </g>
   <g>
    <rect fill="black" x="26110" y="54270" width="4020" height="4020"/>
   </g>
   <g>
    <rect fill="black" x="26110" y="58290" width="4020" height="4020"/>
   </g>
   <g>
    <rect fill="black" x="26110" y="62320" width="4020" height="4020"/>
   </g>
   <g>
    <rect fill="black" x="26110" y="74380" width="4020" height="4020"/>
   </g>
   <g>
    <rect fill="black" x="26110" y="82430" width="4020" height="4020"/>
   </g>
   <g>
    <rect fill="black" x="26110" y="86450" width="4020" height="4020"/>
   </g>
   <g>
    <rect fill="black" x="26110" y="90470" width="4020" height="4020"/>
   </g>
   <g>
    <rect fill="black" x="26110" y="98520" width="4020" height="4020"/>
   </g>
   <g>
    <rect fill="black" x="30130" y="18070" width="4020" height="4020"/>
   </g>
   <g>
    <rect fill="black" x="30130" y="26110" width="4020" height="4020"/>
   </g>
   <g>
    <rect fill="black" x="30130" y="30130" width="4020" height="4020"/>
   </g>
   <g>
    <rect fill="black" x="30130" y="34160" width="4020" height="4020"/>
   </g>
   <g>
    <rect fill="black" x="30130" y="42200" width="4020" height="4020"/>
   </g>
   <g>
    <rect fill="black" x="30130" y="66340" width="4020" height="4020"/>
   </g>
   <g>
    <rect fill="black" x="30130" y="74380" width="4020" height="4020"/>
   </g>
   <g>
    <rect fill="black" x="30130" y="82430" width="4020" height="4020"/>
   </g>
   <g>
    <rect fill="black" x="30130" y="86450" width="4020" height="4020"/>
   </g>
   <g>
    <rect fill="black" x="30130" y="90470" width="4020" height="4020"/>
   </g>
   <g>
    <rect fill="black" x="30130" y="98520" width="4020" height="4020"/>
   </g>
   <g>
    <rect fill="black" x="34160" y="18070" width="4020" height="4020"/>
   </g>
   <g>
    <rect fill="black" x="34160" y="26110" width="4020" height="4020"/>
   </g>
   <g>
    <rect fill="black" x="34160" y="30130" width="4020" height="4020"/>
   </g>
   <g>
    <rect fill="black" x="34160" y="34160" width="4020" height="4020"/>
   </g>
   <g>
    <rect fill="black" x="34160" y="42200" width="4020" height="4020"/>
   </g>
   <g>
    <rect fill="black" x="34160" y="54270" width="4020" height="4020"/>
   </g>
   <g>
    <rect fill="black" x="34160" y="62320" width="4020" height="4020"/>
   </g>
   <g>
    <rect fill="black" x="34160" y="66340" width="4020" height="4020"/>
   </g>
   <g>
    <rect fill="black" x="34160" y="74380" width="4020" height="4020"/>
   </g>
   <g>
    <rect fill="black" x="34160" y="82430" width="4020" height="4020"/>
   </g>
   <g>
    <rect fill="black" x="34160" y="86450" width="4020" height="4020"/>
   </g>
   <g>
    <rect fill="black" x="34160" y="90470" width="4020" height="4020"/>
   </g>
   <g>
    <rect fill="black" x="34160" y="98520" width="4020" height="4020"/>
   </g>
   <g>
    <rect fill="black" x="38180" y="18070" width="4020" height="4020"/>
   </g>
   <g>
    <rect fill="black" x="38180" y="42200" width="4020" height="4020"/>
   </g>
   <g>
    <rect fill="black" x="38180" y="50250" width="4020" height="4020"/>
   </g>
   <g>
    <rect fill="black" x="38180" y="62320" width="4020" height="4020"/>
   </g>
   <g>
    <rect fill="black" x="38180" y="74380" width="4020" height="4020"/>
   </g>
   <g>
    <rect fill="black" x="38180" y="98520" width="4020" height="4020"/>
   </g>
   <g>
    <rect fill="black" x="42200" y="18070" width="4020" height="4020"/>
   </g>
   <g>
    <rect fill="black" x="42200" y="22090" width="4020" height="4020"/>
   </g>
   <g>
    <rect fill="black" x="42200" y="26110" width="4020" height="4020"/>
   </g>
   <g>
    <rect fill="black" x="42200" y="30130" width="4020" height="4020"/>
   </g>
   <g>
    <rect fill="black" x="42200" y="34160" width="4020" height="4020"/>
   </g>
   <g>
    <rect fill="black" x="42200" y="38180" width="4020" height="4020"/>
   </g>
   <g>
    <rect fill="black" x="42200" y="42200" width="4020" height="4020"/>
   </g>
   <g>
    <rect fill="black" x="42200" y="50250" width="4020" height="4020"/>
   </g>
   <g>
    <rect fill="black" x="42200" y="58290" width="4020" height="4020"/>
   </g>
   <g>
    <rect fill="black" x="42200" y="66340" width="4020" height="4020"/>
   </g>
   <g>
    <rect fill="black" x="42200" y="74380" width="4020" height="4020"/>
   </g>
   <g>
    <rect fill="black" x="42200" y="78410" width="4020" height="4020"/>
   </g>
   <g>
    <rect fill="black" x="42200" y="82430" width="4020" height="4020"/>
   </g>
   <g>
    <rect fill="black" x="42200" y="86450" width="4020" height="4020"/>
   </g>
   <g>
    <rect fill="black" x="42200" y="90470" width="4020" height="4020"/>
   </g>
   <g>
    <rect fill="black" x="42200" y="94500" width="4020" height="4020"/>
   </g>
   <g>
    <rect fill="black" x="42200" y="98520" width="4020" height="4020"/>
   </g>
   <g>
    <rect fill="black" x="46220" y="50250" width="4020" height="4020"/>
   </g>
   <g>
    <rect fill="black" x="46220" y="66340" width="4020" height="4020"/>
   </g>
   <g>
    <rect fill="black" x="50250" y="30130" width="4020" height="4020"/>
   </g>
   <g>
    <rect fill="black" x="50250" y="34160" width="4020" height="4020"/>
   </g>
   <g>
    <rect fill="black" x="50250" y="42200" width="4020" height="4020"/>
   </g>
   <g>
    <rect fill="black" x="50250" y="58290" width="4020" height="4020"/>
   </g>
   <g>
    <rect fill="black" x="50250" y="62320" width="4020" height="4020"/>
   </g>
   <g>
    <rect fill="black" x="50250" y="70360" width="4020" height="4020"/>
   </g>
   <g>
    <rect fill="black" x="50250" y="74380" width="4020" height="4020"/>
   </g>
   <g>
    <rect fill="black" x="50250" y="78410" width="4020" height="4020"/>
   </g>
   <g>
    <rect fill="black" x="50250" y="94500" width="4020" height="4020"/>
   </g>
   <g>
    <rect fill="black" x="50250" y="98520" width="4020" height="4020"/>
   </g>
   <g>
    <rect fill="black" x="54270" y="18070" width="4020" height="4020"/>
   </g>
   <g>
    <rect fill="black" x="54270" y="22090" width="4020" height="4020"/>
   </g>
   <g>
    <rect fill="black" x="54270" y="26110" width="4020" height="4020"/>
   </g>
   <g>
    <rect fill="black" x="54270" y="30130" width="4020" height="4020"/>
   </g>
   <g>
    <rect fill="black" x="54270" y="46220" width="4020" height="4020"/>
   </g>
   <g>
    <rect fill="black" x="54270" y="50250" width="4020" height="4020"/>
   </g>
   <g>
    <rect fill="black" x="54270" y="54270" width="4020" height="4020"/>
   </g>
   <g>
    <rect fill="black" x="54270" y="58290" width="4020" height="4020"/>
   </g>
   <g>
    <rect fill="black" x="54270" y="66340" width="4020" height="4020"/>
   </g>
   <g>
    <rect fill="black" x="54270" y="74380" width="4020" height="4020"/>
   </g>
   <g>
    <rect fill="black" x="54270" y="78410" width="4020" height="4020"/>
   </g>
   <g>
    <rect fill="black" x="54270" y="86450" width="4020" height="4020"/>
   </g>
   <g>
    <rect fill="black" x="54270" y="90470" width="4020" height="4020"/>
   </g>
   <g>
    <rect fill="black" x="58290" y="18070" width="4020" height="4020"/>
   </g>
   <g>
    <rect fill="black" x="58290" y="30130" width="4020" height="4020"/>
   </g>
   <g>
    <rect fill="black" x="58290" y="34160" width="4020" height="4020"/>
   </g>
   <g>
    <rect fill="black" x="58290" y="38180" width="4020" height="4020"/>
   </g>
   <g>
    <rect fill="black" x="58290" y="42200" width="4020" height="4020"/>
   </g>
   <g>
    <rect fill="black" x="58290" y="46220" width="4020" height="4020"/>
   </g>
   <g>
    <rect fill="black" x="58290" y="54270" width="4020" height="4020"/>
   </g>
   <g>
    <rect fill="black" x="58290" y="62320" width="4020" height="4020"/>
   </g>
   <g>
    <rect fill="black" x="58290" y="66340" width="4020" height="4020"/>
   </g>
   <g>
    <rect fill="black" x="58290" y="86450" width="4020" height="4020"/>
   </g>
   <g>
    <rect fill="black" x="58290" y="94500" width="4020" height="4020"/>
   </g>
   <g>
    <rect fill="black" x="62320" y="18070" width="4020" height="4020"/>
   </g>
   <g>
    <rect fill="black" x="62320" y="22090" width="4020" height="4020"/>
   </g>
   <g>
    <rect fill="black" x="62320" y="30130" width="4020" height="4020"/>
   </g>
   <g>
    <rect fill="black" x="62320" y="46220" width="4020" height="4020"/>
   </g>
   <g>
    <rect fill="black" x="62320" y="50250" width="4020" height="4020"/>
   </g>
   <g>
    <rect fill="black" x="62320" y="54270" width="4020" height="4020"/>
   </g>
   <g>
    <rect fill="black" x="62320" y="58290" width="4020" height="4020"/>
   </g>
   <g>
    <rect fill="black" x="62320" y="66340" width="4020" height="4020"/>
   </g>
   <g>
    <rect fill="black" x="62320" y="70360" width="4020" height="4020"/>
   </g>
   <g>
    <rect fill="black" x="62320" y="74380" width="4020" height="4020"/>
   </g>
   <g>
    <rect fill="black" x="62320" y="82430" width="4020" height="4020"/>
   </g>
   <g>
    <rect fill="black" x="62320" y="90470" width="4020" height="4020"/>
   </g>
   <g>
    <rect fill="black" x="62320" y="98520" width="4020" height="4020"/>
   </g>
   <g>
    <rect fill="black" x="66340" y="18070" width="4020" height="4020"/>
   </g>
   <g>
    <rect fill="black" x="66340" y="34160" width="4020" height="4020"/>
   </g>
   <g>
    <rect fill="black" x="66340" y="38180" width="4020" height="4020"/>
   </g>
   <g>
    <rect fill="black" x="66340" y="42200" width="4020" height="4020"/>
   </g>
   <g>
    <rect fill="black" x="66340" y="46220" width="4020" height="4020"/>
   </g>
   <g>
    <rect fill="black" x="66340" y="50250" width="4020" height="4020"/>
   </g>
   <g>
    <rect fill="black" x="66340" y="58290" width="4020" height="4020"/>
   </g>
   <g>
    <rect fill="black" x="66340" y="66340" width="4020" height="4020"/>
   </g>
   <g>
    <rect fill="black" x="66340" y="74380" width="4020" height="4020"/>
   </g>
   <g>
    <rect fill="black" x="66340" y="90470" width="4020" height="4020"/>
   </g>
   <g>
    <rect fill="black" x="66340" y="94500" width="4020" height="4020"/>
   </g>
   <g>
    <rect fill="black" x="66340" y="98520" width="4020" height="4020"/>
   </g>
   <g>
    <rect fill="black" x="70360" y="58290" width="4020" height="4020"/>
   </g>
   <g>
    <rect fill="black" x="70360" y="62320" width="4020" height="4020"/>
   </g>
   <g>
    <rect fill="black" x="70360" y="66340" width="4020" height="4020"/>
   </g>
   <g>
    <rect fill="black" x="70360" y="78410" width="4020" height="4020"/>
   </g>
   <g>
    <rect fill="black" x="70360" y="86450" width="4020" height="4020"/>
   </g>
   <g>
    <rect fill="black" x="70360" y="94500" width="4020" height="4020"/>
   </g>
   <g>
    <rect fill="black" x="70360" y="98520" width="4020" height="4020"/>
   </g>
   <g>
    <rect fill="black" x="74380" y="18070" width="4020" height="4020"/>
   </g>
   <g>
    <rect fill="black" x="74380" y="22090" width="4020" height="4020"/>
   </g>
   <g>
    <rect fill="black" x="74380" y="26110" width="4020" height="4020"/>
   </g>
   <g>
    <rect fill="black" x="74380" y="30130" width="4020" height="4020"/>
   </g>
   <g>
    <rect fill="black" x="74380" y="34160" width="4020" height="4020"/>
   </g>
   <g>
    <rect fill="black" x="74380" y="38180" width="4020" height="4020"/>
   </g>
   <g>
    <rect fill="black" x="74380" y="42200" width="4020" height="4020"/>
   </g>
   <g>
    <rect fill="black" x="74380" y="54270" width="4020" height="4020"/>
   </g>
   <g>
    <rect fill="black" x="74380" y="74380" width="4020" height="4020"/>
   </g>
   <g>
    <rect fill="black" x="74380" y="78410" width="4020" height="4020"/>
   </g>
   <g>
    <rect fill="black" x="74380" y="82430" width="4020" height="4020"/>
   </g>
   <g>
    <rect fill="black" x="74380" y="86450" width="4020" height="4020"/>
   </g>
   <g>
    <rect fill="black" x="74380" y="98520" width="4020" height="4020"/>
   </g>
   <g>
    <rect fill="black" x="78410" y="18070" width="4020" height="4020"/>
   </g>
   <g>
    <rect fill="black" x="78410" y="42200" width="4020" height="4020"/>
   </g>
   <g>
    <rect fill="black" x="78410" y="70360" width="4020" height="4020"/>
   </g>
   <g>
    <rect fill="black" x="78410" y="78410" width="4020" height="4020"/>
   </g>
   <g>
    <rect fill="black" x="78410" y="94500" width="4020" height="4020"/>
   </g>
   <g>
    <rect fill="black" x="78410" y="98520" width="4020" height="4020"/>
   </g>
   <g>
    <rect fill="black" x="82430" y="18070" width="4020" height="4020"/>
   </g>
   <g>
    <rect fill="black" x="82430" y="26110" width="4020" height="4020"/>
   </g>
   <g>
    <rect fill="black" x="82430" y="30130" width="4020" height="4020"/>
   </g>
   <g>
    <rect fill="black" x="82430" y="34160" width="4020" height="4020"/>
   </g>
   <g>
    <rect fill="black" x="82430" y="42200" width="4020" height="4020"/>
   </g>
   <g>
    <rect fill="black" x="82430" y="50250" width="4020" height="4020"/>
   </g>
   <g>
    <rect fill="black" x="82430" y="62320" width="4020" height="4020"/>
   </g>
   <g>
    <rect fill="black" x="82430" y="66340" width="4020" height="4020"/>
   </g>
   <g>
    <rect fill="black" x="82430" y="70360" width="4020" height="4020"/>
   </g>
   <g>
    <rect fill="black" x="82430" y="82430" width="4020" height="4020"/>
   </g>
   <g>
    <rect fill="black" x="82430" y="86450" width="4020" height="4020"/>
   </g>
   <g>
    <rect fill="black" x="82430" y="90470" width="4020" height="4020"/>
   </g>
   <g>
    <rect fill="black" x="82430" y="94500" width="4020" height="4020"/>
   </g>
   <g>
    <rect fill="black" x="86450" y="18070" width="4020" height="4020"/>
   </g>
   <g>
    <rect fill="black" x="86450" y="26110" width="4020" height="4020"/>
   </g>
   <g>
    <rect fill="black" x="86450" y="30130" width="4020" height="4020"/>
   </g>
   <g>
    <rect fill="black" x="86450" y="34160" width="4020" height="4020"/>
   </g>
   <g>
    <rect fill="black" x="86450" y="42200" width="4020" height="4020"/>
   </g>
   <g>
    <rect fill="black" x="86450" y="50250" width="4020" height="4020"/>
   </g>
   <g>
    <rect fill="black" x="86450" y="54270" width="4020" height="4020"/>
   </g>
   <g>
    <rect fill="black" x="86450" y="58290" width="4020" height="4020"/>
   </g>
   <g>
    <rect fill="black" x="86450" y="62320" width="4020" height="4020"/>
   </g>
   <g>
    <rect fill="black" x="86450" y="70360" width="4020" height="4020"/>
   </g>
   <g>
    <rect fill="black" x="86450" y="74380" width="4020" height="4020"/>
   </g>
   <g>
    <rect fill="black" x="86450" y="86450" width="4020" height="4020"/>
   </g>
   <g>
    <rect fill="black" x="86450" y="90470" width="4020" height="4020"/>
   </g>
   <g>
    <rect fill="black" x="86450" y="94500" width="4020" height="4020"/>
   </g>
   <g>
    <rect fill="black" x="86450" y="98520" width="4020" height="4020"/>
   </g>
   <g>
    <rect fill="black" x="90470" y="18070" width="4020" height="4020"/>
   </g>
   <g>
    <rect fill="black" x="90470" y="26110" width="4020" height="4020"/>
   </g>
   <g>
    <rect fill="black" x="90470" y="30130" width="4020" height="4020"/>
   </g>
   <g>
    <rect fill="black" x="90470" y="34160" width="4020" height="4020"/>
   </g>
   <g>
    <rect fill="black" x="90470" y="42200" width="4020" height="4020"/>
   </g>
   <g>
    <rect fill="black" x="90470" y="54270" width="4020" height="4020"/>
   </g>
   <g>
    <rect fill="black" x="90470" y="62320" width="4020" height="4020"/>
   </g>
   <g>
    <rect fill="black" x="90470" y="70360" width="4020" height="4020"/>
   </g>
   <g>
    <rect fill="black" x="90470" y="78410" width="4020" height="4020"/>
   </g>
   <g>
    <rect fill="black" x="90470" y="94500" width="4020" height="4020"/>
   </g>
   <g>
    <rect fill="black" x="94500" y="18070" width="4020" height="4020"/>
   </g>
   <g>
    <rect fill="black" x="94500" y="42200" width="4020" height="4020"/>
   </g>
   <g>
    <rect fill="black" x="94500" y="54270" width="4020" height="4020"/>
   </g>
   <g>
    <rect fill="black" x="94500" y="58290" width="4020" height="4020"/>
   </g>
   <g>
    <rect fill="black" x="94500" y="62320" width="4020" height="4020"/>
   </g>
   <g>
    <rect fill="black" x="94500" y="70360" width="4020" height="4020"/>
   </g>
   <g>
    <rect fill="black" x="94500" y="74380" width="4020" height="4020"/>
   </g>
   <g>
    <rect fill="black" x="94500" y="82430" width="4020" height="4020"/>
   </g>
   <g>
    <rect fill="black" x="94500" y="90470" width="4020" height="4020"/>
   </g>
   <g>
    <rect fill="black" x="94500" y="98520" width="4020" height="4020"/>
   </g>
   <g>
    <rect fill="black" x="98520" y="18070" width="4020" height="4020"/>
   </g>
   <g>
    <rect fill="black" x="98520" y="22090" width="4020" height="4020"/>
   </g>
   <g>
    <rect fill="black" x="98520" y="26110" width="4020" height="4020"/>
   </g>
   <g>
    <rect fill="black" x="98520" y="30130" width="4020" height="4020"/>
   </g>
   <g>
    <rect fill="black" x="98520" y="34160" width="4020" height="4020"/>
   </g>
   <g>
    <rect fill="black" x="98520" y="38180" width="4020" height="4020"/>
   </g>
   <g>
    <rect fill="black" x="98520" y="42200" width="4020" height="4020"/>
   </g>
   <g>
    <rect fill="black" x="98520" y="62320" width="4020" height="4020"/>
   </g>
   <g>
    <rect fill="black" x="98520" y="66340" width="4020" height="4020"/>
   </g>
   <g>
    <rect fill="black" x="98520" y="70360" width="4020" height="4020"/>
   </g>
   <g>
    <rect fill="black" x="98520" y="82430" width="4020" height="4020"/>
   </g>
   <g>
    <rect fill="black" x="98520" y="90470" width="4020" height="4020"/>
   </g>
  </g>
  <g id="_1804179628544">
  </g>
 </g>
</svg>
