<?xml version="1.0" encoding="UTF-8"?>
<!DOCTYPE svg PUBLIC "-//W3C//DTD SVG 1.1//EN" "http://www.w3.org/Graphics/SVG/1.1/DTD/svg11.dtd">
<!-- Creator: CorelDRAW 2017 -->
<svg xmlns="http://www.w3.org/2000/svg" xml:space="preserve" width="120px" height="120px" version="1.1" shape-rendering="geometricPrecision" text-rendering="geometricPrecision" image-rendering="optimizeQuality" fill-rule="evenodd" clip-rule="evenodd"
viewBox="0 0 120000 120000"
 xmlns:xlink="http://www.w3.org/1999/xlink">
 <defs>
   <linearGradient id="id0" gradientUnits="userSpaceOnUse" x1="30870" y1="27160" x2="37280" y2="19540">
    <stop offset="0" stop-opacity="1" stop-color="#FBE1E1"/>
    <stop offset="0.168627" stop-opacity="1" stop-color="#FCEFEF"/>
    <stop offset="1" stop-opacity="1" stop-color="#FEFEFE"/>
   </linearGradient>
   <linearGradient id="id1" gradientUnits="userSpaceOnUse" x1="88620" y1="27040" x2="82100" y2="19510">
    <stop offset="0" stop-opacity="1" stop-color="#FBE1E1"/>
    <stop offset="0.25098" stop-opacity="1" stop-color="#FCEFEF"/>
    <stop offset="1" stop-opacity="1" stop-color="#FEFEFE"/>
   </linearGradient>
 </defs>
 <g id="Слой_x0020_2">
  <metadata id="CorelCorpID_0Corel-Layer"/>
  <rect fill="#F5F4F2" x="120" y="-2820" width="119850" height="123070" rx="6680" ry="6700"/>
  <ellipse fill="#B4BD5F" cx="59090" cy="49300" rx="45700" ry="47840"/>
  <circle fill="white" cx="78360" cy="30080" r="20200"/>
  <path fill="white" d="M39900 6890c9980,0 18420,6610 21180,15680 2930,-6690 9610,-11360 17380,-11360 10480,0 18970,8490 18970,18970 0,10480 -8490,18970 -18970,18970 -8170,0 -15140,-5170 -17810,-12420 -3130,8430 -11240,14430 -20750,14430 -12220,0 -22130,-9910 -22130,-22130 0,-12230 9910,-22140 22130,-22140z"/>
  <path fill="url(#id0)" d="M27380 24140c-230,-2000 3910,-7270 6460,-7580l5530 8480 -1440 2710 -10550 -3610z"/>
  <path fill="#61605D" d="M25960 5060l-15040 -1160c0,1340 3760,8490 9300,8760 500,30 660,20 650,0 -3250,3910 -5300,9340 -5700,16390 -10,220 -20,440 -30,650 -2560,5960 -3990,12660 -3990,19910 0,26670 18900,40510 44760,61390 -14780,150 -26200,1170 -26200,2410 0,1350 13510,2440 30160,2440 16660,0 30160,-1090 30160,-2440 0,-1230 -11300,-2250 -25970,-2410 23510,-23560 43590,-34760 43370,-61390 -50,-6530 -1260,-12640 -3410,-18160 50,-860 40,-1740 -10,-2630 -400,-7160 -2410,-12700 -5590,-16750 590,0 300,20 740,10 6570,-140 8610,-7370 8610,-8710l-14610 1280 -9470 90c-500,0 -1000,30 -1510,80 -730,-50 -1480,-80 -2240,-80 -750,0 -1510,70 -2260,190 -5650,-2240 -11860,-3460 -18390,-3460 -6660,0 -13000,1250 -18770,3570 -420,-40 -850,-70 -1280,-70 -1180,0 -2340,70 -3470,190 -110,0 -230,-10 -340,-10l-9470 -90zm52190 17120c-4590,100 -8270,3850 -8270,8460 0,4680 3790,8470 8470,8470 4670,0 8460,-3790 8460,-8470 0,-1630 -460,-3160 -1260,-4450 -790,890 -2160,1450 -3450,1450l-2830 6880 -4390 -2410 4190 -5860c-610,-750 -1070,-1890 -1070,-2930 0,-400 50,-780 150,-1140zm-44410 4230c-2260,3990 -930,9070 3020,11440 4020,2400 9220,1090 11620,-2920 2400,-4010 1090,-9210 -2930,-11610 -1400,-840 -2940,-1230 -4470,-1200 360,1130 250,2410 -410,3510 -60,110 20,110 -80,170l4830 5640 -3940 2950 -3810 -6710c-840,520 -2010,-10 -2920,-560 -340,-200 -650,-440 -910,-710zm6910 -15610c10020,0 18240,7780 18920,17640 880,-9660 9000,-17230 18890,-17230 10480,0 18970,8490 18970,18970 0,10480 -8490,18970 -18970,18970 -10030,0 -18240,-7780 -18920,-17640 -880,9670 -9000,17230 -18890,17230 -10480,0 -18980,-8490 -18980,-18970 0,-10480 8500,-18970 18980,-18970zm-23980 27910c3500,8870 12550,14410 22570,14410 5970,0 11930,-300 16710,-1830 -160,570 -250,1170 -250,1800 0,2780 1680,5180 4080,6230 2400,-1050 4080,-3450 4080,-6230 0,-670 -100,-1320 -280,-1930 4710,1440 10540,1730 16360,1730 9520,0 18160,-4990 22010,-13090 700,3120 1070,6360 1070,9690 0,10910 -3980,20890 -10580,28570 -4420,-670 -11460,-20630 -11680,-20500 -1050,640 2120,17980 5830,26150 -7510,6020 -17040,9630 -27410,9630 -10050,0 -19300,-3380 -26690,-9060 3720,-8140 6910,-25570 5860,-26210 -210,-130 -7260,19840 -11680,20500l-60 280c-7010,-7770 -11280,-18070 -11280,-29360 0,-3720 460,-7330 1340,-10780z"/>
  <path fill="url(#id1)" d="M92060 24060c230,-1990 -3920,-7260 -6470,-7580l-5530 8490 1450 2700 10550 -3610z"/>
  <path fill="#E31E24" d="M85650 16790c90,50 430,230 530,280l-7030 17060 -3780 -2100c3430,-5080 6850,-10160 10280,-15240z"/>
  <path fill="#E31E24" d="M32150 17950c90,-70 340,-230 430,-290l12350 13620 -3530 2470c-1160,-2000 -2320,-4000 -3470,-6000 -1900,-3290 -3880,-6520 -5780,-9800z"/>
  <g id="_1372785560032">
   <polygon fill="#61605D" points="38960,8660 40210,8630 40080,14390 39370,14400 "/>
   <polygon fill="#61605D" points="28070,12510 29150,11890 31800,17000 31180,17360 "/>
   <polygon fill="#61605D" points="20550,20740 21220,19690 25930,23000 25550,23600 "/>
   <polygon fill="#61605D" points="49780,10240 50900,10780 48170,15850 47530,15540 "/>
   <polygon fill="#61605D" points="58130,15950 58920,16910 54310,20360 53850,19800 "/>
  </g>
  <g id="_1372785560736">
   <polygon fill="#61605D" points="80770,8240 81990,8450 80780,14070 80080,13950 "/>
   <polygon fill="#61605D" points="69350,9960 70520,9550 72150,15070 71470,15310 "/>
   <polygon fill="#61605D" points="60400,16610 61260,15710 65260,19850 64770,20370 "/>
   <polygon fill="#61605D" points="91090,11840 92090,12590 88450,17050 87880,16620 "/>
   <polygon fill="#61605D" points="98210,19030 98800,20130 93620,22630 93280,22000 "/>
  </g>
 </g>
</svg>
