<?xml version="1.0" encoding="UTF-8"?>
<!DOCTYPE svg PUBLIC "-//W3C//DTD SVG 1.1//EN" "http://www.w3.org/Graphics/SVG/1.1/DTD/svg11.dtd">
<!-- Creator: CorelDRAW 2017 -->
<svg xmlns="http://www.w3.org/2000/svg" xml:space="preserve" width="120px" height="120px" version="1.1" shape-rendering="geometricPrecision" text-rendering="geometricPrecision" image-rendering="optimizeQuality" fill-rule="evenodd" clip-rule="evenodd"
viewBox="0 0 120000 120000"
 xmlns:xlink="http://www.w3.org/1999/xlink">
 <g id="Слой_x0020_2">
  <metadata id="CorelCorpID_0Corel-Layer"/>
  <g id="_2268554706112">
   <rect fill="#F5F4F2" x="190" y="80" width="119940" height="120710" rx="7730" ry="7710"/>
   <circle fill="#B4BD5F" cx="59550" cy="52170" r="43020"/>
   <circle fill="white" cx="42650" cy="33730" r="18750"/>
   <circle fill="white" cx="77990" cy="33730" r="18750"/>
   <path fill="#61605D" d="M28470 10570l-13520 0c0,1270 660,7140 8120,7140 200,0 410,-10 620,-10 -3060,3670 -4980,8770 -5360,15390 -10,200 -20,410 -20,610 -2410,5590 -3760,11880 -3760,18680 0,25040 17770,38030 42080,57630 -13890,140 -24630,1100 -24630,2260 0,1260 12700,2290 28360,2290 15660,0 28360,-1030 28360,-2290 0,-1150 -10630,-2110 -24430,-2260 22110,-22120 40990,-32630 40790,-57630 -60,-6130 -1190,-11860 -3210,-17040 40,-810 40,-1630 -10,-2470 -380,-6720 -2360,-11880 -5500,-15560 240,10 480,10 700,10 7470,0 8120,-5870 8120,-7140l-13520 0 -8910 90c-470,0 -940,30 -1410,70 -700,-40 -1400,-70 -2110,-70 -710,0 -1420,60 -2120,180 -5320,-2110 -11160,-3250 -17290,-3250 -6270,0 -12230,1170 -17650,3350 -400,-40 -800,-60 -1200,-60 -1120,0 -2210,60 -3270,170 -110,0 -210,0 -320,0l-8910 -90zm49080 16070c-4320,90 -7780,3610 -7780,7940 0,4390 3560,7950 7960,7950 4400,0 7960,-3560 7960,-7950 0,-1530 -440,-2960 -1190,-4180 -740,840 -1830,1370 -3040,1370 -2240,0 -4060,-1820 -4060,-4060 0,-370 50,-730 150,-1070zm-41760 3970c-2130,3740 -880,8520 2840,10740 3780,2250 8670,1020 10920,-2740 2260,-3770 1030,-8650 -2750,-10900 -1310,-790 -2770,-1150 -4200,-1130 340,1070 230,2270 -390,3300 -1150,1920 -3640,2550 -5570,1400 -320,-190 -600,-420 -850,-670zm6490 -14650c9430,0 17150,7300 17800,16550 820,-9070 8460,-16170 17760,-16170 9850,0 17830,7970 17830,17810 0,9830 -7980,17810 -17830,17810 -9430,0 -17150,-7310 -17790,-16560 -830,9070 -8470,16170 -17770,16170 -9850,0 -17830,-7970 -17830,-17800 0,-9840 7980,-17810 17830,-17810zm-22540 26200c3290,8320 11800,13520 21230,13520 5600,0 11210,-280 15700,-1720 -150,540 -230,1110 -230,1690 0,2620 1580,4860 3830,5850 2260,-990 3840,-3230 3840,-5850 0,-630 -90,-1230 -260,-1810 4430,1350 9910,1620 15380,1620 8950,0 17070,-4680 20690,-12280 660,2920 1010,5970 1010,9100 0,10240 -3750,19610 -9950,26810 -4160,-630 -10780,-19370 -10980,-19240 -980,600 1990,16880 5480,24540 -7060,5660 -16020,9040 -25770,9040 -9450,0 -18140,-3170 -25090,-8500 3500,-7640 6490,-24000 5500,-24610 -200,-120 -6820,18630 -10980,19250l-50 260c-6600,-7290 -10610,-16960 -10610,-27550 0,-3500 440,-6880 1260,-10120z"/>
  </g>
 </g>
</svg>
