<?xml version="1.0" encoding="UTF-8"?>
<!DOCTYPE svg PUBLIC "-//W3C//DTD SVG 1.1//EN" "http://www.w3.org/Graphics/SVG/1.1/DTD/svg11.dtd">
<!-- Creator: CorelDRAW 2017 -->
<svg xmlns="http://www.w3.org/2000/svg" xml:space="preserve" width="100%" height="100%" version="1.1" style="shape-rendering:geometricPrecision; text-rendering:geometricPrecision; image-rendering:optimizeQuality; fill-rule:evenodd; clip-rule:evenodd"
viewBox="0 0 21000 21000"
 xmlns:xlink="http://www.w3.org/1999/xlink">
 <defs>
  <style type="text/css">
   <![CDATA[
    .fil2 {fill:#454340}
    .fil1 {fill:#B4BD5F}
    .fil0 {fill:white}
   ]]>
  </style>
 </defs>
 <g id="Слой_x0020_2">
  <metadata id="CorelCorpID_0Corel-Layer"/>
  <rect class="fil0" x="65" y="27" width="20920" height="20920" rx="973" ry="973"/>
  <g id="_2636880723920">
   <ellipse class="fil1" cx="10664" cy="9579" rx="6329" ry="6625"/>
   <circle class="fil0" cx="13332" cy="6917" r="2797"/>
   <path class="fil0" d="M8006 3706c1382,0 2550,915 2933,2172 406,-927 1331,-1574 2407,-1574 1451,0 2627,1176 2627,2627 0,1451 -1176,2627 -2627,2627 -1132,0 -2097,-716 -2466,-1719 -433,1167 -1557,1998 -2874,1998 -1693,0 -3065,-1372 -3065,-3065 0,-1693 1372,-3065 3065,-3065z"/>
   <path class="fil2" d="M6075 3453l-1992 0c0,186 97,1052 1197,1052 29,0 59,0 91,0 -451,541 -734,1293 -789,2269 -2,30 -3,61 -4,91 -355,825 -553,1753 -553,2756 0,3694 2617,5610 6198,8501 -2047,22 -3628,163 -3628,334 0,186 1870,337 4177,337 2307,0 4177,-151 4177,-337 0,-170 -1565,-311 -3597,-334 3256,-3263 6037,-4814 6007,-8502 -8,-905 -174,-1750 -472,-2515 6,-119 6,-240 -1,-364 -56,-992 -347,-1752 -810,-2295 36,0 70,0 103,0 1100,0 1197,-866 1197,-1052l-1992 0 -1312 12c-69,1 -139,5 -209,11 -102,-7 -205,-11 -311,-11 -104,0 -209,9 -313,26 -783,-311 -1643,-480 -2547,-480 -922,0 -1801,173 -2600,494 -59,-6 -118,-9 -177,-9 -165,0 -325,9 -482,26 -15,0 -31,-1 -46,-1l-1312 -12zm7228 2370c-635,14 -1146,534 -1146,1172 0,648 525,1173 1173,1173 648,0 1173,-525 1173,-1173 0,-226 -64,-437 -175,-617 -110,123 -269,201 -447,201 -331,0 -598,-268 -598,-598 0,-55 7,-108 21,-158zm-6150 586c-314,553 -130,1257 418,1585 556,332 1276,151 1608,-405 332,-556 151,-1276 -405,-1608 -194,-116 -408,-169 -619,-166 50,157 34,334 -57,487 -170,284 -537,376 -821,206 -47,-28 -89,-62 -125,-99zm956 -2161c1389,0 2526,1078 2621,2442 122,-1338 1246,-2386 2616,-2386 1451,0 2627,1176 2627,2627 0,1451 -1176,2627 -2627,2627 -1389,0 -2526,-1078 -2621,-2442 -122,1338 -1246,2386 -2616,2386 -1451,0 -2627,-1176 -2627,-2627 0,-1451 1176,-2627 2627,-2627zm-3321 3865c485,1228 1738,1995 3127,1995 826,0 1652,-42 2313,-254 -22,79 -33,163 -33,249 0,386 232,718 565,863 332,-145 565,-477 565,-863 0,-93 -13,-182 -38,-267 653,199 1459,239 2266,239 1318,0 2515,-691 3048,-1812 97,432 149,881 149,1342 0,1511 -552,2893 -1466,3956 -612,-92 -1588,-2857 -1617,-2839 -145,89 294,2491 807,3622 -1040,834 -2360,1334 -3797,1334 -1391,0 -2672,-468 -3696,-1254 516,-1127 957,-3542 811,-3630 -30,-18 -1005,2748 -1618,2839l-9 39c-971,-1076 -1562,-2502 -1562,-4065 0,-515 64,-1015 185,-1493z"/>
  </g>
 </g>
</svg>
