<?xml version="1.0" encoding="UTF-8"?>
<!DOCTYPE svg PUBLIC "-//W3C//DTD SVG 1.1//EN" "http://www.w3.org/Graphics/SVG/1.1/DTD/svg11.dtd">
<!-- Creator: CorelDRAW 2017 -->
<svg xmlns="http://www.w3.org/2000/svg" xml:space="preserve" width="100%" height="100%" version="1.1" style="shape-rendering:geometricPrecision; text-rendering:geometricPrecision; image-rendering:optimizeQuality; fill-rule:evenodd; clip-rule:evenodd"
viewBox="0 0 21000 21000"
 xmlns:xlink="http://www.w3.org/1999/xlink">
 <defs>
  <style type="text/css">
   <![CDATA[
    .fil8 {fill:none}
    .fil3 {fill:#54453E}
    .fil2 {fill:#808551}
    .fil0 {fill:#82726B}
    .fil6 {fill:#93995C}
    .fil5 {fill:#B4BD5F}
    .fil7 {fill:#D9CDC1}
    .fil4 {fill:#F5F4F2}
    .fil1 {fill:white}
   ]]>
  </style>
 </defs>
 <g id="Слой_x0020_1">
  <metadata id="CorelCorpID_0Corel-Layer"/>
  <g id="_2901999911936">
   <rect class="fil0" x="-359" y="-382" width="21446" height="21590"/>
   <path class="fil1" d="M2401 914l16322 0c695,0 1263,545 1263,1211l0 16208c0,666 -568,1211 -1263,1211l-16322 0c-695,0 -1263,-545 -1263,-1211l0 -16208c0,-666 569,-1211 1263,-1211z"/>
   <path class="fil0" d="M4211 7624c-241,-3627 1002,-4920 2733,-5023 1535,-92 3509,95 3815,3195 52,527 534,717 681,886l6577 6342 2603 3297c240,1942 416,1492 134,4157 -18,169 -41,318 -113,413 -171,221 -422,264 -788,260 -210,-3 -435,-180 -714,-333 -1069,-586 -1891,-2221 -1949,-2284 -980,-79 -3846,-217 -4985,-196 -895,17 -1680,367 -2554,492 -889,127 -2011,620 -2456,899 -163,102 -144,-172 -304,-194 -452,-64 655,-668 1248,-1051 187,-121 1038,-325 850,-348 -2951,-350 -689,-200 -4477,-885 -220,-40 -283,-481 4,-477 1055,15 2291,455 4101,390 2191,-79 7884,291 8207,12l-696 -2437c-43,-24 -914,-120 -1039,511 -158,801 -353,1748 -962,1793 -166,12 -338,2 -516,-27 -238,-39 86,-430 -65,-645 -197,-282 -1214,-875 -1575,-860 -343,13 -2527,1612 -2801,1559 -242,-47 -444,-144 -453,-250 265,-213 831,-709 786,-1148 -42,-422 -655,-1173 -812,-1253 -1513,-776 -2856,-1928 -3366,-2518 -894,-1033 -1008,-2662 -1115,-4274z"/>
   <path class="fil2" d="M6983 17547c-358,-733 58,-969 931,-935 935,37 2322,275 2344,441 -92,36 -1757,-213 -2686,56 -295,85 -409,288 -588,437z"/>
   <path class="fil3" d="M7618 4489c314,0 582,-760 1797,-178 834,400 610,1419 487,1891 -240,926 -1147,1802 -2261,1802 -1114,0 -2108,-569 -2520,-1640 -87,-226 -201,-874 -58,-1369 75,-260 234,-499 413,-593 1359,-705 1550,88 2140,88z"/>
   <path class="fil4" d="M7633 4108c314,0 582,-760 1797,-178 834,400 610,1419 487,1891 -240,926 -1147,1802 -2261,1802 -1114,0 -2108,-569 -2520,-1640 -87,-226 -201,-874 -58,-1369 75,-260 234,-499 413,-593 1359,-705 1550,88 2140,88z"/>
   <path class="fil5" d="M5802 16531c-1292,265 -1825,-913 -1657,-1501 245,0 1695,-191 1657,1501z"/>
   <path class="fil5" d="M7903 20901c-473,-773 233,-1379 683,-1402 54,158 511,1050 -683,1402z"/>
   <ellipse class="fil6" cx="3829" cy="16265" rx="305" ry="293"/>
   <ellipse class="fil6" cx="7204" cy="20307" rx="305" ry="293"/>
   <path class="fil2" d="M11996 17720c-358,-733 58,-969 931,-935 935,37 2322,275 2344,441 -92,36 -1757,-213 -2686,56 -295,85 -409,288 -588,437z"/>
   <path class="fil5" d="M7552 6550c-595,-319 -340,-884 -48,-1029 93,77 720,471 48,1029z"/>
   <path class="fil5" d="M7883 17674c-358,-733 58,-969 931,-935 935,37 2322,275 2344,441 -92,36 -1757,-213 -2686,56 -295,85 -409,288 -588,437z"/>
   <path class="fil5" d="M13015 17733c-270,-733 44,-969 702,-935 704,37 1750,275 1766,441 -49,114 -1055,14 -1797,-11 -82,-3 -157,39 -228,66 -222,85 -308,288 -443,437z"/>
   <path class="fil3" d="M5486 8324l582 13c-7,308 -274,552 -595,545 -321,-7 -576,-262 -568,-570l582 13z"/>
   <path class="fil3" d="M7640 8398l582 13c-7,308 -274,552 -595,545 -321,-7 -576,-262 -568,-570l582 13z"/>
   <path class="fil3" d="M8740 9364l582 13c-7,308 -274,552 -595,545 -321,-7 -576,-262 -568,-570l582 13z"/>
   <path class="fil3" d="M6570 9423l582 13c-7,308 -274,552 -595,545 -321,-7 -576,-262 -568,-570l582 13z"/>
   <path class="fil3" d="M7670 10390l582 13c-7,308 -274,552 -595,545 -321,-7 -576,-262 -568,-570l582 13z"/>
   <path class="fil3" d="M5578 10375l582 13c-7,308 -274,552 -595,545 -321,-7 -576,-262 -568,-570l582 13z"/>
   <path class="fil3" d="M6601 11356l582 13c-7,308 -274,552 -595,545 -321,-7 -576,-262 -568,-570l582 13z"/>
   <path class="fil3" d="M8724 11386l582 13c-7,308 -274,552 -595,545 -321,-7 -576,-262 -568,-570l582 13z"/>
   <path class="fil3" d="M7640 12411l582 13c-7,308 -274,552 -595,545 -321,-7 -576,-262 -568,-570l582 13z"/>
   <ellipse class="fil5" cx="5516" cy="9652" rx="305" ry="293"/>
   <ellipse class="fil5" cx="6601" cy="8612" rx="305" ry="293"/>
   <ellipse class="fil5" cx="7655" cy="9666" rx="305" ry="293"/>
   <ellipse class="fil5" cx="6601" cy="10633" rx="305" ry="293"/>
   <ellipse class="fil5" cx="7670" cy="11600" rx="305" ry="293"/>
   <path class="fil7" d="M5529 4755c842,-625 1588,150 1650,675 -175,78 -1153,694 -1650,-675z"/>
   <path class="fil7" d="M7963 5484c82,-983 1117,-1102 1538,-851 -55,175 -229,1256 -1538,851z"/>
   <path class="fil3" d="M5768 4885c580,-383 1093,92 1136,415 -121,48 -794,426 -1136,-415z"/>
   <path class="fil3" d="M8202 5340c65,-672 775,-745 1060,-570 -39,119 -169,858 -1060,570z"/>
   <path class="fil5" d="M19491 12347c805,0 -3106,2048 -6997,1228 -1689,-356 -3823,-1961 -3365,-5158 167,-1168 611,-1767 1704,-1798 1899,-53 7560,5727 8658,5727z"/>
   <path class="fil2" d="M17651 11220c-912,321 -1940,573 -3017,653 -1120,84 -2308,6 -3259,-953 907,624 1817,601 2752,531 1069,-80 2090,-329 2997,-646 181,145 357,284 526,415z"/>
   <path class="fil2" d="M19469 12356c805,0 -3106,2048 -6997,1228 -915,-193 -1960,-752 -2653,-1733 651,649 1465,1037 2195,1191 2961,624 5933,-413 6830,-944 271,164 485,258 625,258z"/>
   <path class="fil3" d="M8795 14498l3177 1011c-744,238 -1228,710 -1841,1066 -166,-316 -304,-646 -498,-947 -253,-393 -559,-753 -838,-1130z"/>
   <path class="fil3" d="M19440 14825c-1268,-194 -1949,802 -2860,1494l-517 -1729c-1143,192 -1723,26 -3049,-254 -1047,-221 -2265,-922 -2931,-2184 681,790 1598,1251 2411,1423 2157,455 4320,28 5682,-443l1263 1693z"/>
   <path class="fil6" d="M10817 8837l582 13c-7,308 -274,552 -595,545 -321,-7 -576,-262 -568,-570l582 13z"/>
   <path class="fil6" d="M12879 8852l582 13c-7,308 -274,552 -595,545 -321,-7 -576,-262 -568,-570l582 13z"/>
   <path class="fil6" d="M11794 7812l582 13c-7,308 -274,552 -595,545 -321,-7 -576,-262 -568,-570l582 13z"/>
   <path class="fil6" d="M13963 9892l582 13c-7,308 -274,552 -595,545 -321,-7 -576,-262 -568,-570l582 13z"/>
   <path class="fil6" d="M11733 9833l582 13c-7,308 -274,552 -595,545 -321,-7 -576,-262 -568,-570l582 13z"/>
   <path class="fil8" d="M7610 17951l3215 145c-744,238 -2756,490 -3370,845 495,-477 988,-519 1581,-785 -452,-110 -955,14 -1426,-205z"/>
  </g>
 </g>
</svg>
