<?xml version="1.0" encoding="UTF-8"?>
<!DOCTYPE svg PUBLIC "-//W3C//DTD SVG 1.1//EN" "http://www.w3.org/Graphics/SVG/1.1/DTD/svg11.dtd">
<!-- Creator: CorelDRAW 2017 -->
<svg xmlns="http://www.w3.org/2000/svg" xml:space="preserve" width="100%" height="100%" version="1.1" style="shape-rendering:geometricPrecision; text-rendering:geometricPrecision; image-rendering:optimizeQuality; fill-rule:evenodd; clip-rule:evenodd"
viewBox="0 0 21000 21000"
 xmlns:xlink="http://www.w3.org/1999/xlink">
 <defs>
  <style type="text/css">
   <![CDATA[
    .fil8 {fill:none}
    .fil3 {fill:#54453E}
    .fil2 {fill:#808551}
    .fil0 {fill:#82726B}
    .fil6 {fill:#93995C}
    .fil5 {fill:#B4BD5F}
    .fil7 {fill:#D9CDC1}
    .fil4 {fill:#F5F4F2}
    .fil1 {fill:white}
   ]]>
  </style>
 </defs>
 <g id="Слой_x0020_1">
  <metadata id="CorelCorpID_0Corel-Layer"/>
  <g id="_2902248082944">
   <rect class="fil0" x="-135" y="-32" width="21376" height="21590"/>
   <path class="fil1" d="M18490 1265l-16269 0c-693,0 -1259,545 -1259,1211l0 16208c0,666 567,1211 1259,1211l16269 0c693,0 1259,-545 1259,-1211l0 -16208c0,-666 -567,-1211 -1259,-1211z"/>
   <path class="fil0" d="M16686 7974c240,-3627 -998,-4920 -2724,-5023 -1530,-92 -3498,95 -3803,3195 -52,527 -533,717 -679,886l-6556 6342 -2595 3297c-239,1942 -415,1492 -133,4157 18,169 41,318 113,413 170,221 421,264 785,260 210,-3 433,-180 711,-333 1065,-586 1885,-2221 1943,-2284 977,-79 3834,-217 4969,-196 893,17 1674,367 2546,492 887,127 2004,620 2449,899 163,102 144,-172 303,-194 450,-64 -652,-668 -1244,-1051 -187,-121 -1035,-325 -848,-348 2941,-350 687,-200 4462,-885 219,-40 282,-481 -4,-477 -1052,15 -2283,455 -4088,390 -2184,-79 -7859,291 -8181,12l694 -2437c42,-24 911,-120 1035,511 157,801 352,1748 959,1793 165,12 337,2 514,-27 238,-39 -85,-430 65,-645 196,-282 1210,-875 1570,-860 342,13 2519,1612 2792,1559 241,-47 442,-144 452,-250 -264,-213 -828,-709 -784,-1148 42,-422 653,-1173 809,-1253 1509,-776 2847,-1928 3355,-2518 891,-1033 1005,-2662 1112,-4274z"/>
   <path class="fil2" d="M13923 17897c357,-733 -58,-969 -928,-935 -932,37 -2314,275 -2336,441 91,36 1751,-213 2678,56 294,85 407,288 587,437z"/>
   <path class="fil3" d="M13291 4839c-313,0 -580,-760 -1792,-178 -832,400 -608,1419 -486,1891 239,926 1143,1802 2253,1802 1110,0 2101,-569 2512,-1640 87,-226 200,-874 57,-1369 -75,-260 -233,-499 -412,-593 -1355,-705 -1544,88 -2133,88z"/>
   <path class="fil4" d="M13275 4458c-313,0 -580,-760 -1792,-178 -832,400 -608,1419 -486,1891 239,926 1143,1802 2253,1802 1110,0 2101,-569 2512,-1640 87,-226 200,-874 57,-1369 -75,-260 -233,-499 -412,-593 -1355,-705 -1544,88 -2133,88z"/>
   <path class="fil5" d="M15100 16881c1288,265 1819,-913 1652,-1501 -244,0 -1690,-191 -1652,1501z"/>
   <path class="fil5" d="M13006 21251c472,-773 -233,-1379 -681,-1402 -54,158 -510,1050 681,1402z"/>
   <ellipse class="fil6" cx="17067" cy="16615" rx="305" ry="293"/>
   <ellipse class="fil6" cx="13703" cy="20658" rx="305" ry="293"/>
   <path class="fil2" d="M8927 18070c357,-733 -58,-969 -928,-935 -932,37 -2314,275 -2336,441 91,36 1751,-213 2678,56 294,85 407,288 587,437z"/>
   <path class="fil5" d="M13356 6900c593,-319 339,-884 47,-1029 -93,77 -718,471 -47,1029z"/>
   <path class="fil5" d="M13026 18024c357,-733 -58,-969 -928,-935 -932,37 -2314,275 -2336,441 91,36 1751,-213 2678,56 294,85 407,288 587,437z"/>
   <path class="fil5" d="M7911 18083c269,-733 -44,-969 -699,-935 -702,37 -1744,275 -1760,441 49,114 1051,14 1791,-11 82,-3 156,39 227,66 221,85 307,288 442,437z"/>
   <path class="fil3" d="M15415 8675l-580 13c7,308 273,552 593,545 320,-7 574,-262 567,-570l-580 13z"/>
   <path class="fil3" d="M13269 8748l-580 13c7,308 273,552 593,545 320,-7 574,-262 567,-570l-580 13z"/>
   <path class="fil3" d="M12172 9715l-580 13c7,308 273,552 593,545 320,-7 574,-262 567,-570l-580 13z"/>
   <path class="fil3" d="M14334 9773l-580 13c7,308 273,552 593,545 320,-7 574,-262 567,-570l-580 13z"/>
   <path class="fil3" d="M13238 10740l-580 13c7,308 273,552 593,545 320,-7 574,-262 567,-570l-580 13z"/>
   <path class="fil3" d="M15324 10725l-580 13c7,308 273,552 593,545 320,-7 574,-262 567,-570l-580 13z"/>
   <path class="fil3" d="M14304 11707l-580 13c7,308 273,552 593,545 320,-7 574,-262 567,-570l-580 13z"/>
   <path class="fil3" d="M12188 11736l-580 13c7,308 273,552 593,545 320,-7 574,-262 567,-570l-580 13z"/>
   <path class="fil3" d="M13269 12761l-580 13c7,308 273,552 593,545 320,-7 574,-262 567,-570l-580 13z"/>
   <ellipse class="fil5" cx="15385" cy="10002" rx="305" ry="293"/>
   <ellipse class="fil5" cx="14304" cy="8962" rx="305" ry="293"/>
   <ellipse class="fil5" cx="13253" cy="10016" rx="305" ry="293"/>
   <ellipse class="fil5" cx="14304" cy="10983" rx="305" ry="293"/>
   <ellipse class="fil5" cx="13238" cy="11950" rx="305" ry="293"/>
   <path class="fil7" d="M15372 5105c-839,-625 -1583,150 -1644,675 174,78 1150,694 1644,-675z"/>
   <path class="fil7" d="M12946 5834c-82,-983 -1114,-1102 -1533,-851 55,175 229,1256 1533,851z"/>
   <path class="fil3" d="M15134 5235c-578,-383 -1090,92 -1132,415 120,48 792,426 1132,-415z"/>
   <path class="fil3" d="M12709 5690c-65,-672 -773,-745 -1057,-570 39,119 168,858 1057,570z"/>
   <path class="fil5" d="M1456 12697c-802,0 3096,2048 6974,1228 1684,-356 3811,-1961 3354,-5158 -167,-1168 -609,-1767 -1698,-1798 -1893,-53 -7536,5727 -8630,5727z"/>
   <path class="fil2" d="M3290 11571c909,321 1934,573 3007,653 1117,84 2301,6 3248,-953 -904,624 -1811,601 -2744,531 -1066,-80 -2083,-329 -2987,-646 -181,145 -356,284 -525,415z"/>
   <path class="fil2" d="M1478 12706c-802,0 3096,2048 6974,1228 912,-193 1954,-752 2645,-1733 -649,649 -1460,1037 -2188,1191 -2952,624 -5914,-413 -6808,-944 -270,164 -484,258 -623,258z"/>
   <path class="fil3" d="M12117 14848l-3167 1011c741,238 1224,710 1835,1066 165,-316 303,-646 496,-947 252,-393 557,-753 836,-1130z"/>
   <path class="fil3" d="M1507 15175c1264,-194 1943,802 2850,1494l516 -1729c1139,192 1717,26 3039,-254 1044,-221 2258,-922 2921,-2184 -678,790 -1592,1251 -2403,1423 -2150,455 -4306,28 -5664,-443l-1259 1693z"/>
   <path class="fil6" d="M10102 9187l-580 13c7,308 273,552 593,545 320,-7 574,-262 567,-570l-580 13z"/>
   <path class="fil6" d="M8046 9202l-580 13c7,308 273,552 593,545 320,-7 574,-262 567,-570l-580 13z"/>
   <path class="fil6" d="M9127 8162l-580 13c7,308 273,552 593,545 320,-7 574,-262 567,-570l-580 13z"/>
   <path class="fil6" d="M6965 10242l-580 13c7,308 273,552 593,545 320,-7 574,-262 567,-570l-580 13z"/>
   <path class="fil6" d="M9188 10183l-580 13c7,308 273,552 593,545 320,-7 574,-262 567,-570l-580 13z"/>
   <path class="fil8" d="M13298 18301l-3204 145c741,238 2747,490 3359,845 -493,-477 -985,-519 -1575,-785 451,-110 952,14 1421,-205z"/>
  </g>
 </g>
</svg>
